Patient4_TMGait_0pt5_02_left_31_EMG.mot
version=1
nRows=13
nColumns=33
inDegrees=no
endheader
time	1LAddLong	2LGlutMax	3LGlutMed	4LIliopsoas	5LSemiMemb	6LBicFemLong	7LRecFem	8LVastMed	9LVastLat	10LGasMed	11LTibAnt	12lTibPost	13LPeroneusLong	14LSol	15LExtDigLong	16LFlexDigLong	17RAddLong	18RGlutMax	19RGlutMed	20RIliopsoas	21RSemiMemb	22RBicFemLong	23RRecFem	24RVastMed	25RVastLat	26RGasMed	27RTibAnt	28RTibPost	29RPeroneusLong	30RSol	31RExtDigLong	32RFlexDigLong
39.77	0.008545	0.22659	-0.058289	0.01709	-0.011139	0.006866	0.071869	0.00351	-0.088959	-0.000763	-0.022278	0.011902	0.074921	-0.036316	0.13718	0.006561	0.001373	0.17242	0.41168	-0.039978	0.054779	-0.014954	-0.13336	-0.042877	0.58853	0.003967	0.25207	-0.001068	0.052032	-0.12161	0.000305	-0.002594
39.771	0.007935	0.22339	-0.041656	0.001984	-0.00885	-0.013733	0.089722	0.000916	-0.090027	0.027466	0.028229	0.00885	0.041809	-0.028076	0.057526	0.005951	0.045319	0.14984	0.86746	-0.012665	-0.019684	0.018158	-0.042419	-0.13107	0.54092	0.011749	0.053558	-0.003967	0.26627	-0.22766	-0.001831	-0.002136
39.772	0.000458	0.24429	-0.030975	0.004883	-0.008392	0.011749	0.061035	0.00412	-0.10025	0.024414	0.019684	0.00885	0.088501	-0.011292	0.016632	0.004425	0.037537	0.13641	0.44632	0.075989	-0.17151	-0.015869	-0.092468	-0.16342	0.33402	0.010071	0.11002	-0.001678	0.13825	-0.10742	-0.004883	0.004425
39.773	0.005798	0.25681	-0.048523	0.028687	-0.00351	0.013885	0.066681	0.002136	-0.10971	0.00351	0.028076	0.00885	0.14236	0.006561	0.006561	0.005646	0.023804	0.16632	0.5188	0.080414	-0.095062	-0.010223	-0.091705	-0.013428	0.020752	0.005798	0.61157	-0.002441	0.060272	-0.10727	0.009155	-0.001984
39.774	0.009155	0.2533	-0.056305	0.022278	0.001068	-0.00351	0.057526	0.004883	-0.11475	-0.016174	0.02243	0.016937	0.1506	0.019073	-0.016174	0.013123	0.012512	0.18051	0.48386	0.06897	-0.065308	0.072327	0.014801	0.061035	-0.31967	0.003052	0.90759	0	0.023346	-0.12024	-0.001526	-0.005035
39.775	-0.002899	0.25299	-0.080719	0.019379	-0.002136	0.003967	0.046539	0.007172	-0.12177	-0.010376	-0.018311	0.003357	0.13916	0.028992	0.026093	0.006866	-0.018616	0.18967	0.087585	0.052032	-0.015106	0.11688	0.095367	0.13092	-0.6282	-0.002747	0.47501	-0.001984	0.052185	0.060272	-0.000763	-0.010223
39.776	0.001984	0.22736	-0.068207	0.026398	0	-0.007935	0.055847	0.005188	-0.12787	0.002594	0.01709	0.011597	0.098419	0.052795	0.095825	0.007477	-0.026703	0.1033	-0.12283	0.00473	0.074615	0.15518	0.086212	0.16541	-0.46875	-0.005646	-0.16846	-0.001678	0.090637	0.30807	0.000458	-0.007629
39.777	0.00412	0.25375	-0.062103	0.01358	-0.00473	-0.005035	0.039368	0.010681	-0.12756	0.016174	-0.040588	0.005035	0.09964	0.01709	0.00412	-0.00061	-0.045166	0.1236	0.27176	-0.046997	-0.1712	0.17364	0.015869	0.14771	-0.11444	-0.001068	-0.53925	-0.00351	0.12268	0.40237	0.008392	-0.002441
39.778	0.002136	0.22751	-0.066833	0.007019	0.004578	-0.011139	0.019379	0.002289	-0.12787	0.005646	-0.018463	0.013275	0.076447	0.007019	-0.030212	-0.000153	-0.062256	0.065155	0.29617	-0.054016	-0.24948	-0.083313	-0.10117	0.076141	-0.021973	-0.00061	-0.9758	-0.005798	0.097198	0.30304	-0.001373	-0.004425
39.779	0.005341	0.20554	-0.056458	-0.014496	-0.005035	-0.001068	0.013885	0.000763	-0.14053	0.014954	0.014038	0.007324	0.062866	0.011749	0.010681	0.002136	-0.044403	0.072632	0.26779	-0.046234	-0.23483	-0.038757	-0.058746	0.089569	-0.005493	0.015564	-0.77225	-0.001678	-0.036469	0.11566	-0.001068	-0.012512
39.78	0.001221	0.21042	-0.066376	-0.010834	0.005341	-0.015717	0.014191	-0.001068	-0.15762	-0.002747	0.036469	0.014191	0.044403	0.0177	-0.039063	0.00412	-0.034332	0.095367	0.43839	-0.003815	-0.20538	0.03952	0.035095	0.068207	-0.011902	0.003204	-0.055695	-0.007782	-0.18326	-0.11597	0.000916	-0.011292
39.781	0.007019	0.18631	-0.057831	0.028229	-0.007324	-0.006256	0.006104	-0.000305	-0.17487	-0.019836	0.091553	0.001831	0.059662	0.032043	0.21072	0.007477	-0.036163	0.023651	0.6221	-0.043488	0.26703	-0.05249	0.030823	0.12161	0.001373	-0.017395	0.1535	-0.005035	-0.28488	-0.30624	-0.006409	-0.00885
39.782	0.010071	0.15396	-0.063324	0.029602	-0.004883	-0.028381	0.020142	0.003967	-0.18433	-0.015869	0.12695	-0.006256	0.066223	0.011902	-0.011139	0.01358	-0.024261	0.008392	0.76858	-0.058136	0.5304	-0.12589	0.02655	0.084229	0.005798	-0.032654	0.053406	-0.003357	-0.20081	-0.47943	-0.002441	-0.007477
